<?xml version="1.0" standalone="no"?>
<!DOCTYPE svg PUBLIC "-//W3C//DTD SVG 20010904//EN"
 "http://www.w3.org/TR/2001/REC-SVG-20010904/DTD/svg10.dtd">
<svg version="1.0" xmlns="http://www.w3.org/2000/svg"
 width="6368.000000pt" height="1568.000000pt" viewBox="0 0 6368.000000 1568.000000"
 preserveAspectRatio="xMidYMid meet">
<metadata>
Created by potrace 1.16, written by Peter Selinger 2001-2019
</metadata>
<g transform="translate(0.000000,1568.000000) scale(0.100000,-0.100000)"
fill="#000000" stroke="none">
<path d="M22 15657 l-22 -23 0 -7796 c0 -7539 1 -7795 18 -7811 17 -16 2242
-17 31819 -17 30795 0 31800 1 31816 18 16 17 17 574 17 7814 l0 7795 -23 21
-23 22 -31790 0 -31791 0 -21 -23z m54287 -255 c111 -222 204 -475 237 -650
24 -125 22 -280 -5 -363 -42 -132 -133 -234 -261 -293 l-55 -26 -6 143 c-4 78
-7 266 -9 417 -1 170 -5 264 -10 245 -5 -16 -37 -201 -71 -410 -34 -209 -64
-382 -66 -384 -1 -2 -27 13 -57 33 -126 87 -200 204 -219 345 -29 218 107 552
383 942 39 54 75 99 80 99 6 0 32 -44 59 -98z m-1681 -604 c429 -146 714 -333
808 -533 34 -70 39 -90 42 -173 4 -89 -11 -181 -40 -235 -10 -19 0 -27 -438
387 -153 144 -183 171 -174 156 4 -8 78 -109 164 -225 301 -405 323 -437 309
-445 -7 -5 -49 -14 -93 -20 -331 -47 -560 201 -706 765 -30 116 -80 354 -80
383 0 8 68 -12 208 -60z m3505 -204 l47 -7 -26 -46 c-56 -98 -196 -301 -278
-402 -147 -183 -309 -319 -443 -372 -120 -47 -256 -41 -378 18 -64 30 -115 69
-104 79 2 2 101 65 219 141 392 251 468 300 466 302 -1 2 -172 -68 -379 -154
-208 -86 -381 -153 -385 -149 -11 12 -3 133 13 190 50 170 184 288 398 350 82
24 240 51 352 60 68 5 439 -2 498 -10z m-1659 -1078 c42 -15 104 -40 138 -57
33 -17 91 -41 129 -54 88 -29 307 -160 390 -232 139 -122 292 -319 407 -526
67 -121 132 -303 157 -442 9 -49 25 -137 35 -195 35 -192 26 -261 -74 -558
-81 -240 -150 -356 -305 -512 -131 -132 -291 -250 -518 -385 -71 -43 -80 -51
-73 -69 4 -12 31 -74 59 -139 91 -212 161 -451 138 -473 -13 -13 -68 49 -99
111 -57 112 -251 450 -285 494 -18 24 -33 55 -33 69 0 24 -2 24 -47 18 -77
-10 -145 -36 -150 -57 -6 -23 -16 -23 -76 -3 -43 14 -52 14 -110 0 -73 -18
-116 -20 -184 -7 -26 5 -66 12 -88 15 l-41 6 -36 -73 c-20 -39 -84 -148 -142
-242 -58 -93 -120 -193 -137 -222 -31 -49 -110 -118 -128 -111 -30 11 81 259
228 508 l79 135 -66 34 c-37 19 -96 44 -132 56 -184 64 -318 151 -462 301
-162 169 -274 359 -352 600 -59 181 -76 274 -83 444 -6 172 6 249 52 339 49
97 62 63 20 -54 -13 -38 -25 -83 -25 -99 0 -29 0 -29 21 -10 12 10 31 39 43
63 l23 44 6 -189 c15 -412 75 -720 166 -840 31 -41 43 -49 74 -52 35 -3 39 -1
53 33 12 30 18 35 37 29 12 -3 31 -14 42 -23 19 -15 19 -15 4 4 -8 11 -39 47
-67 79 -55 64 -120 186 -145 276 -47 163 -61 413 -33 572 50 279 236 563 459
702 101 63 223 106 302 106 l60 0 -60 -33 c-266 -144 -436 -347 -539 -645 -95
-274 -89 -453 26 -759 17 -46 41 -94 54 -108 19 -20 21 -30 14 -54 -8 -29 -3
-35 113 -147 66 -65 122 -113 125 -106 2 6 -17 50 -43 97 -57 104 -58 145 -1
67 44 -61 61 -72 110 -72 44 0 66 -20 105 -98 36 -72 104 -135 184 -172 111
-51 106 -53 156 45 59 118 133 229 170 256 l31 23 -73 140 c-149 287 -218 368
-397 461 -133 70 -177 117 -210 224 -36 116 -19 209 52 278 69 66 100 78 203
78 l90 0 88 -54 c100 -61 164 -134 187 -216 12 -41 11 -59 -4 -135 -15 -74
-16 -96 -6 -146 23 -111 131 -364 156 -364 18 0 96 98 143 179 60 102 116 234
141 331 19 70 58 128 145 215 78 78 219 184 230 173 3 -3 -1 -32 -9 -64 -9
-33 -25 -108 -37 -169 -26 -140 -65 -217 -127 -254 -33 -20 -61 -52 -116 -136
-105 -160 -172 -274 -213 -362 -47 -101 -43 -128 33 -263 75 -133 99 -185 108
-234 5 -27 19 -50 42 -71 19 -17 34 -37 34 -43 0 -17 29 -15 106 9 153 47 279
129 337 219 9 14 36 39 59 56 23 16 45 41 48 55 4 16 13 23 26 22 26 -2 84 44
84 67 0 11 25 61 55 112 83 139 114 235 156 475 28 158 33 491 10 583 -15 60
-128 294 -187 387 -84 133 -276 333 -409 428 -85 61 -98 67 -248 126 -55 21
-129 56 -165 77 -70 42 -126 55 -275 68 -78 6 -78 6 -60 26 10 12 32 27 48 35
46 21 184 10 279 -21z m-410 -237 c15 -29 14 -31 -4 -36 -22 -6 -35 -32 -22
-45 18 -18 120 -38 247 -48 216 -18 310 -52 483 -174 51 -36 98 -66 105 -66
25 0 114 -49 156 -86 24 -21 77 -88 117 -149 39 -60 86 -128 104 -150 46 -58
65 -99 91 -200 19 -74 23 -116 23 -240 -1 -225 -40 -409 -129 -593 -60 -125
-114 -194 -193 -251 -60 -43 -57 -32 47 146 55 94 114 253 141 382 31 143 25
358 -13 504 -44 167 -157 378 -276 516 -25 29 -53 63 -62 74 -13 16 -33 22
-94 28 -62 6 -83 13 -111 36 -108 86 -185 117 -336 133 -166 19 -413 -19 -525
-79 l-53 -29 0 23 c0 13 8 30 18 37 10 7 22 19 27 27 7 12 -7 13 -92 8 -160
-11 -301 -57 -418 -136 -32 -22 -71 -27 -95 -11 -12 7 -12 12 0 35 27 51 222
179 304 201 31 8 119 41 196 74 167 71 245 95 322 99 20 1 30 -6 42 -30z
m-28236 -696 l-3 -518 -2577 -3 -2578 -2 0 -1720 c0 -946 3 -1720 6 -1720 3 0
65 16 138 36 86 23 157 49 206 77 224 124 330 165 518 198 165 30 623 33 752
6 519 -111 1175 -544 1583 -1047 251 -308 413 -611 541 -1009 235 -727 258
-1634 64 -2526 -91 -421 -261 -927 -434 -1293 l-55 -117 -32 40 c-18 22 -178
201 -357 399 -179 197 -326 365 -328 372 -2 8 38 102 88 210 318 683 489 1180
605 1756 43 218 62 357 76 578 10 156 9 206 -10 460 -34 432 -59 597 -121 783
-75 225 -235 479 -380 602 -82 70 -294 192 -394 226 -157 54 -440 81 -644 60
-392 -40 -679 -148 -1044 -392 -421 -282 -685 -505 -748 -634 l-25 -50 -3
-3187 -2 -3188 -73 0 -72 0 -68 105 c-38 57 -119 164 -179 237 -169 203 -402
507 -578 753 l-65 90 -5 2167 -5 2168 -145 -87 c-154 -92 -189 -117 -382 -284
-264 -227 -555 -429 -795 -552 -265 -135 -492 -219 -733 -273 -118 -27 -139
-28 -365 -29 -264 0 -356 11 -564 65 -567 149 -1003 539 -1315 1174 -212 431
-263 716 -253 1412 4 331 6 355 31 474 161 752 717 1317 1437 1462 99 20 144
23 344 23 178 0 255 -4 340 -18 550 -93 1095 -375 1504 -780 125 -124 388
-406 515 -552 83 -95 368 -385 378 -385 5 0 8 880 8 1955 l0 1955 -2775 0
-2775 0 0 520 0 520 5875 0 5875 0 -2 -517z m11197 -68 c452 -74 766 -329
1015 -825 196 -389 420 -1080 606 -1864 69 -290 70 -293 102 -310 22 -11 184
-12 915 -8 512 3 887 1 887 -4 0 -5 1 -136 3 -292 l2 -282 -762 0 -762 0 -26
-22 -25 -23 0 -2942 0 -2943 -44 0 -45 0 -158 182 c-87 101 -215 250 -285 331
l-128 149 0 2608 c0 2552 0 2608 -19 2631 l-19 24 -486 3 -486 3 0 284 0 285
554 0 c378 0 563 3 585 11 37 13 51 35 51 83 0 39 -9 47 -170 157 -556 380
-1110 594 -1660 640 -211 18 -680 -4 -880 -41 -25 -5 -47 -7 -49 -5 -7 8 -170
730 -165 735 3 3 105 5 227 4 181 0 246 -4 352 -22 632 -108 1209 -422 2115
-1151 96 -78 186 -144 199 -148 32 -8 72 15 89 50 12 24 8 49 -37 230 -116
466 -272 831 -484 1132 -92 130 -303 341 -422 422 -173 117 -366 198 -580 243
-74 16 -152 23 -298 27 l-198 6 -165 328 -164 329 362 0 c272 0 385 -4 453
-15z m-3548 -1661 c86 -69 132 -226 111 -377 -11 -86 -55 -184 -95 -213 l-28
-21 -2298 -5 c-1263 -3 -2299 -7 -2301 -9 -8 -9 44 -248 68 -313 14 -38 64
-139 110 -225 127 -235 189 -397 255 -657 75 -297 101 -497 108 -820 13 -591
-75 -1007 -313 -1483 -268 -536 -620 -914 -1039 -1116 -243 -117 -471 -173
-795 -195 -173 -12 -367 -34 -376 -42 -7 -7 29 -176 50 -234 34 -98 66 -147
191 -294 44 -52 130 -156 189 -230 139 -172 397 -429 551 -548 386 -299 793
-508 1134 -582 49 -11 183 -27 298 -35 231 -17 315 -29 354 -52 68 -40 109
-165 109 -331 0 -125 -17 -180 -72 -227 -164 -140 -586 -104 -1083 92 -374
148 -779 388 -1070 636 -229 195 -267 238 -703 781 -249 310 -698 1026 -909
1451 -154 309 -218 501 -218 660 0 91 3 106 31 165 36 75 92 134 140 150 27 9
44 8 85 -5 42 -14 76 -41 198 -159 81 -78 186 -171 234 -207 398 -299 844
-391 1282 -264 50 15 149 55 220 90 486 236 846 723 989 1335 78 332 87 722
26 1075 -139 799 -722 1453 -1399 1569 -182 31 -441 16 -614 -35 -247 -73
-402 -177 -697 -465 -189 -184 -230 -211 -300 -195 -72 16 -115 53 -155 133
-45 92 -56 185 -31 267 21 70 20 116 -3 166 -23 51 -61 88 -119 117 l-47 23
-1735 5 c-1710 5 -1736 5 -1775 25 -74 37 -109 144 -110 330 0 81 4 109 21
146 29 61 76 113 127 138 l42 21 5662 -2 5661 -3 39 -31z m9363 -1275 c389
-35 701 -173 949 -419 280 -277 445 -626 513 -1085 18 -122 18 -579 0 -700
-85 -567 -300 -1009 -687 -1414 -212 -221 -543 -471 -858 -645 -87 -49 -97
-60 -97 -104 1 -32 16 -55 116 -177 321 -388 608 -807 844 -1230 74 -132 270
-524 270 -539 0 -7 -101 -59 -105 -54 -2 2 -28 56 -59 122 -114 241 -315 603
-484 870 -261 413 -682 966 -747 982 -15 4 -59 -7 -117 -29 -251 -94 -541
-142 -812 -134 -236 6 -345 39 -446 133 -97 91 -136 215 -128 411 7 177 54
278 162 351 88 59 169 77 346 77 137 0 163 -3 225 -24 169 -57 355 -177 549
-353 110 -100 129 -106 192 -60 63 46 243 212 328 303 164 176 329 397 460
615 72 121 82 163 46 201 -20 22 -41 26 -235 38 -218 14 -526 73 -712 136
-534 180 -900 519 -1008 934 -39 148 -48 241 -42 429 8 245 47 416 137 601
159 328 471 603 806 708 190 60 369 77 594 56z m-5840 -364 l0 -285 -1451 0
-1451 0 -29 -29 -29 -29 0 -837 c0 -617 3 -842 12 -858 30 -57 64 -59 159 -12
171 87 346 125 570 126 343 0 627 -101 914 -326 419 -328 650 -760 706 -1319
16 -167 7 -467 -20 -619 -36 -206 -87 -381 -171 -593 -53 -133 -166 -364 -178
-364 -4 0 -107 100 -230 223 l-222 222 103 205 c162 321 266 606 323 883 31
152 44 478 25 631 -59 463 -295 721 -699 766 -311 34 -663 -82 -1017 -334
-103 -73 -248 -195 -262 -220 -10 -16 -12 -409 -13 -1733 l0 -1713 -44 0 c-49
0 -11 -39 -429 437 l-177 202 0 1110 0 1110 -22 25 c-13 15 -37 29 -54 32 -27
5 -44 -5 -165 -102 -328 -263 -630 -419 -942 -486 -193 -41 -486 -27 -692 33
-446 131 -773 518 -861 1019 -22 124 -28 319 -15 441 28 262 119 464 278 624
256 256 559 366 932 335 232 -19 419 -70 626 -170 252 -122 471 -296 726 -577
86 -95 110 -103 160 -54 l29 29 0 932 0 932 -29 29 -29 29 -1646 0 -1646 0 0
285 0 285 3480 0 3480 0 0 -285z m10700 0 l0 -285 -686 0 -686 0 -29 -29 -29
-29 0 -2946 0 -2946 -39 0 c-38 0 -42 4 -257 252 -120 139 -247 284 -281 323
l-63 70 0 2622 0 2622 -24 28 -24 28 -263 5 -263 5 -183 240 c-100 132 -197
259 -213 283 l-31 42 1535 0 1536 0 0 -285z m7410 0 l0 -285 -756 0 c-777 0
-781 0 -811 -39 -10 -13 -12 -657 -13 -2939 l0 -2923 -54 3 -53 3 -266 300
-266 300 -1 1720 c0 1366 -3 1725 -13 1745 -7 14 -25 31 -40 38 -24 12 -36 11
-95 -9 -218 -72 -500 -266 -747 -514 -193 -195 -570 -636 -810 -948 l-59 -77
-166 163 c-91 89 -200 196 -242 236 -43 41 -78 79 -78 84 0 19 151 214 336
432 55 66 104 130 108 142 14 44 -5 72 -118 169 -248 213 -484 341 -741 400
-113 26 -341 26 -445 0 -270 -69 -538 -273 -681 -521 -85 -146 -120 -284 -120
-473 1 -269 79 -529 243 -800 146 -242 469 -609 1096 -1243 l333 -337 -28 -22
-27 -21 -841 843 c-598 599 -870 879 -942 969 -335 416 -455 762 -398 1143 52
342 266 638 570 786 224 110 461 135 748 80 397 -77 871 -357 1326 -785 36
-34 76 -65 87 -69 35 -11 70 10 157 91 329 310 712 534 1072 628 112 29 297
55 391 55 59 0 68 3 95 29 l29 30 -2 640 -3 640 -23 23 -23 23 -2410 5 -2410
5 -2 283 -2 282 3548 0 3547 0 0 -285z"/>
<path d="M17135 8740 c-431 -78 -789 -220 -1055 -421 -103 -78 -254 -237 -323
-341 -77 -116 -152 -277 -184 -395 -25 -90 -27 -114 -27 -288 0 -175 2 -198
27 -290 120 -444 487 -753 997 -839 340 -57 696 -9 1180 160 489 169 1215 553
1690 891 144 103 140 93 79 218 -126 256 -526 655 -914 911 -136 89 -225 134
-335 169 -47 14 -170 62 -275 105 -275 114 -347 131 -570 136 -148 3 -200 0
-290 -16z"/>
<path d="M42853 9366 c-144 -28 -286 -91 -400 -179 -222 -170 -408 -478 -497
-818 -48 -183 -61 -297 -60 -534 0 -204 2 -227 26 -315 46 -172 111 -283 228
-393 59 -56 103 -86 172 -120 191 -94 327 -121 603 -121 219 0 298 11 498 74
117 37 112 31 197 246 151 386 226 731 237 1099 9 302 -23 500 -113 683 -37
77 -61 110 -127 177 -96 96 -174 142 -302 180 -76 23 -114 28 -240 31 -100 2
-174 -1 -222 -10z"/>
<path d="M31933 7204 c-486 -59 -869 -285 -1031 -609 -89 -180 -84 -427 15
-625 54 -107 179 -231 289 -288 125 -64 229 -86 404 -85 125 0 159 4 244 27
315 85 675 298 1121 663 180 147 396 344 406 370 12 32 12 125 -1 157 -14 37
-190 168 -309 229 -168 87 -310 132 -512 161 -132 20 -466 20 -626 0z"/>
</g>
</svg>
